<?xml version="1.0" encoding="utf-8"?>
<!-- Generator: Adobe Illustrator 24.1.1, SVG Export Plug-In . SVG Version: 6.00 Build 0)  -->
<svg version="1.1" id="Layer_1" xmlns="http://www.w3.org/2000/svg" xmlns:xlink="http://www.w3.org/1999/xlink" x="0px" y="0px"
	 viewBox="0 0 512 512" style="enable-background:new 0 0 512 512;" xml:space="preserve">
<style type="text/css">
	.st0{fill:#333333;}
</style>
<g id="XMLID_2_">
	<path id="XMLID_7_" class="st0" d="M460.8,437.8c0,11.9-6,23-17.9,33.3s-28.2,17.9-47.8,23.9c-19.6,6-41.8,10.2-65.7,13.7
		c-23,1.7-47.8,3.4-73.4,3.4s-50.3-1.7-73.4-4.3c-23.9-3.4-45.2-7.7-65.7-13.7s-35.8-13.7-47.8-23.9c-11.9-9.4-17.9-20.5-17.9-32.4
		c0-9.4,3.4-17.9,9.4-25.6c6-7.7,15.4-14.5,26.5-19.6s23-9.4,34.1-12.8c11.9-3.4,24.7-6,38.4-8.5c5.1-0.9,9.4,0,13.7,3.4
		c4.3,3.4,6.8,6.8,7.7,11.9c0.9,5.1,0,9.4-3.4,13.7s-6.8,6.8-11.9,7.7c-11.1,1.7-21.3,4.3-30.7,6.8s-17.1,5.1-22.2,7.7
		s-10.2,4.3-13.7,6c-4.3,2.6-6.8,4.3-7.7,6c-1.7,1.7-2.6,2.6-2.6,3.4c0.9,2.6,3.4,5.1,7.7,7.7c4.3,3.4,11.9,6,21.3,9.4
		c9.4,3.4,20.5,6.8,33.3,9.4c12.8,2.6,28.2,5.1,46.9,7.7c18.8,1.7,38.4,2.6,58.9,2.6s40.1-0.9,58.9-2.6c18.8-1.7,34.1-4.3,46.9-7.7
		c12.8-2.6,23.9-6,33.3-9.4c9.4-3.4,16.2-6.8,21.3-9.4c4.3-3.4,7.7-6,7.7-7.7c0-0.9-0.9-1.7-2.6-3.4c-1.7-1.7-4.3-3.4-7.7-5.1
		c-4.3-2.6-8.5-4.3-14.5-6.8s-12.8-4.3-22.2-7.7c-9.4-3.4-19.6-5.1-30.7-6.8c-5.1-0.9-9.4-3.4-11.9-7.7c-3.4-4.3-4.3-8.5-3.4-13.7
		c0.9-5.1,3.4-9.4,7.7-11.9c4.3-3.4,8.5-4.3,13.7-3.4c13.7,2.6,26.5,5.1,38.4,8.5c11.9,3.4,23,7.7,34.1,12.8s20.5,11.9,26.5,19.6
		C458.2,419.8,460.8,428.4,460.8,437.8z M349,176.6v111.8c0,5.1-1.7,9.4-5.1,12.8c-3.4,3.4-8.5,6-13.7,6h-18.8V419
		c0,5.1-1.7,9.4-5.1,12.8c-3.4,3.4-7.7,5.1-12.8,5.1h-74.2c-5.1,0-9.4-1.7-12.8-5.1c-3.4-3.4-5.1-7.7-5.1-12.8V307.2h-18.8
		c-5.1,0-9.4-1.7-12.8-5.1c-3.4-3.4-5.1-7.7-5.1-12.8V176.6c0-10.2,3.4-18.8,11.1-26.5c7.7-7.7,16.2-11.1,26.5-11.1H314
		c10.2,0,18.8,3.4,26.5,11.1C345.6,157.9,349,166.4,349,176.6z M320.9,64.9c0,17.9-6,33.3-18.8,46.1c-12.8,12.8-28.2,18.8-46.1,18.8
		s-33.3-6-46.1-18.8s-18.8-28.2-18.8-46.1s6-33.3,18.8-46.1S238.1,0,256,0s33.3,6,46.1,18.8S320.9,46.9,320.9,64.9z"/>
</g>
</svg>
